<mxfile host="app.diagrams.net" modified="2023-04-04T15:43:45.693Z" agent="Mozilla/5.0 (Windows NT 10.0; Win64; x64) AppleWebKit/537.36 (KHTML, like Gecko) Chrome/111.0.0.0 Safari/537.36" etag="q3Gb6xupTBgPLrkExqHE" version="21.1.4" type="device">
  <diagram name="Page-1" id="tbzcwFUgjDGp2Yk5ilfw">
    <mxGraphModel dx="1036" dy="571" grid="1" gridSize="10" guides="1" tooltips="1" connect="1" arrows="1" fold="1" page="1" pageScale="1" pageWidth="850" pageHeight="1100" math="0" shadow="0">
      <root>
        <mxCell id="0" />
        <mxCell id="1" parent="0" />
        <mxCell id="2az8KpTj_jC6bh87CxZR-1" value="" style="ellipse;html=1;shape=startState;fillColor=#000000;strokeColor=#ff0000;" vertex="1" parent="1">
          <mxGeometry x="110" y="170" width="30" height="30" as="geometry" />
        </mxCell>
        <mxCell id="2az8KpTj_jC6bh87CxZR-4" value="" style="edgeStyle=orthogonalEdgeStyle;html=1;verticalAlign=bottom;endArrow=open;endSize=8;strokeColor=#ff0000;rounded=0;" edge="1" parent="1">
          <mxGeometry relative="1" as="geometry">
            <mxPoint x="220" y="184.5" as="targetPoint" />
            <mxPoint x="140" y="184.5" as="sourcePoint" />
          </mxGeometry>
        </mxCell>
        <mxCell id="2az8KpTj_jC6bh87CxZR-5" value="" style="edgeStyle=orthogonalEdgeStyle;rounded=0;orthogonalLoop=1;jettySize=auto;html=1;" edge="1" parent="1" source="2az8KpTj_jC6bh87CxZR-7" target="2az8KpTj_jC6bh87CxZR-12">
          <mxGeometry relative="1" as="geometry" />
        </mxCell>
        <mxCell id="2az8KpTj_jC6bh87CxZR-6" value="sucessfull" style="edgeLabel;html=1;align=center;verticalAlign=middle;resizable=0;points=[];" vertex="1" connectable="0" parent="2az8KpTj_jC6bh87CxZR-5">
          <mxGeometry x="-0.2773" y="7" relative="1" as="geometry">
            <mxPoint x="11" y="-8" as="offset" />
          </mxGeometry>
        </mxCell>
        <mxCell id="2az8KpTj_jC6bh87CxZR-7" value="Login" style="ellipse;whiteSpace=wrap;html=1;align=center;" vertex="1" parent="1">
          <mxGeometry x="215" y="160" width="100" height="40" as="geometry" />
        </mxCell>
        <mxCell id="2az8KpTj_jC6bh87CxZR-8" value="" style="edgeStyle=orthogonalEdgeStyle;rounded=0;orthogonalLoop=1;jettySize=auto;html=1;" edge="1" parent="1" source="2az8KpTj_jC6bh87CxZR-12" target="2az8KpTj_jC6bh87CxZR-15">
          <mxGeometry relative="1" as="geometry" />
        </mxCell>
        <mxCell id="2az8KpTj_jC6bh87CxZR-9" value="issuebook" style="edgeLabel;html=1;align=center;verticalAlign=middle;resizable=0;points=[];" vertex="1" connectable="0" parent="2az8KpTj_jC6bh87CxZR-8">
          <mxGeometry x="-0.2635" y="-8" relative="1" as="geometry">
            <mxPoint x="33" y="21" as="offset" />
          </mxGeometry>
        </mxCell>
        <mxCell id="2az8KpTj_jC6bh87CxZR-10" value="" style="edgeStyle=orthogonalEdgeStyle;rounded=0;orthogonalLoop=1;jettySize=auto;html=1;" edge="1" parent="1" source="2az8KpTj_jC6bh87CxZR-12" target="2az8KpTj_jC6bh87CxZR-16">
          <mxGeometry relative="1" as="geometry" />
        </mxCell>
        <mxCell id="2az8KpTj_jC6bh87CxZR-20" value="" style="edgeStyle=orthogonalEdgeStyle;rounded=0;orthogonalLoop=1;jettySize=auto;html=1;" edge="1" parent="1" source="2az8KpTj_jC6bh87CxZR-12" target="2az8KpTj_jC6bh87CxZR-19">
          <mxGeometry relative="1" as="geometry" />
        </mxCell>
        <mxCell id="2az8KpTj_jC6bh87CxZR-12" value="MainStudent" style="ellipse;whiteSpace=wrap;html=1;align=center;" vertex="1" parent="1">
          <mxGeometry x="395" y="160" width="100" height="40" as="geometry" />
        </mxCell>
        <mxCell id="2az8KpTj_jC6bh87CxZR-13" value="" style="verticalLabelPosition=bottom;verticalAlign=top;html=1;shape=mxgraph.basic.arc;startAngle=0.3;endAngle=0.09994632657949533;rotation=105;" vertex="1" parent="1">
          <mxGeometry x="205" y="75" width="100" height="100" as="geometry" />
        </mxCell>
        <mxCell id="2az8KpTj_jC6bh87CxZR-14" value="Fail login, Retry" style="text;html=1;align=center;verticalAlign=middle;resizable=0;points=[];autosize=1;strokeColor=none;fillColor=none;" vertex="1" parent="1">
          <mxGeometry x="170" y="50" width="110" height="30" as="geometry" />
        </mxCell>
        <mxCell id="2az8KpTj_jC6bh87CxZR-15" value="IssueBook" style="ellipse;whiteSpace=wrap;html=1;align=center;" vertex="1" parent="1">
          <mxGeometry x="395" y="280" width="100" height="40" as="geometry" />
        </mxCell>
        <mxCell id="2az8KpTj_jC6bh87CxZR-16" value="Show Issued Books" style="ellipse;whiteSpace=wrap;html=1;align=center;" vertex="1" parent="1">
          <mxGeometry x="395" y="40" width="100" height="40" as="geometry" />
        </mxCell>
        <mxCell id="2az8KpTj_jC6bh87CxZR-17" value="" style="curved=1;endArrow=classic;html=1;rounded=0;exitX=1;exitY=1;exitDx=0;exitDy=0;entryX=0;entryY=1;entryDx=0;entryDy=0;" edge="1" parent="1" source="2az8KpTj_jC6bh87CxZR-15" target="2az8KpTj_jC6bh87CxZR-15">
          <mxGeometry width="50" height="50" relative="1" as="geometry">
            <mxPoint x="515" y="396" as="sourcePoint" />
            <mxPoint x="445" y="396" as="targetPoint" />
            <Array as="points">
              <mxPoint x="480" y="355" />
              <mxPoint x="425" y="355" />
            </Array>
          </mxGeometry>
        </mxCell>
        <mxCell id="2az8KpTj_jC6bh87CxZR-18" value="unsuccessfull, Retry&lt;br&gt;" style="text;html=1;align=center;verticalAlign=middle;resizable=0;points=[];autosize=1;strokeColor=none;fillColor=none;" vertex="1" parent="1">
          <mxGeometry x="405" y="355" width="130" height="30" as="geometry" />
        </mxCell>
        <mxCell id="2az8KpTj_jC6bh87CxZR-19" value="Search Book" style="ellipse;whiteSpace=wrap;html=1;align=center;" vertex="1" parent="1">
          <mxGeometry x="575" y="160" width="100" height="40" as="geometry" />
        </mxCell>
        <mxCell id="2az8KpTj_jC6bh87CxZR-21" value="search book by title,&lt;br&gt;publisher,&lt;br&gt;author" style="text;html=1;align=center;verticalAlign=middle;resizable=0;points=[];autosize=1;strokeColor=none;fillColor=none;" vertex="1" parent="1">
          <mxGeometry x="470" y="190" width="130" height="60" as="geometry" />
        </mxCell>
        <mxCell id="2az8KpTj_jC6bh87CxZR-22" value="" style="ellipse;html=1;shape=endState;fillColor=#000000;strokeColor=#ff0000;" vertex="1" parent="1">
          <mxGeometry x="730" y="165" width="30" height="30" as="geometry" />
        </mxCell>
        <mxCell id="2az8KpTj_jC6bh87CxZR-23" value="end" style="html=1;verticalAlign=bottom;endArrow=block;edgeStyle=elbowEdgeStyle;elbow=vertical;curved=0;rounded=0;" edge="1" parent="1">
          <mxGeometry x="-0.0511" width="80" relative="1" as="geometry">
            <mxPoint x="675" y="179.5" as="sourcePoint" />
            <mxPoint x="730" y="180" as="targetPoint" />
            <mxPoint as="offset" />
          </mxGeometry>
        </mxCell>
        <mxCell id="2az8KpTj_jC6bh87CxZR-24" value="Return Book" style="ellipse;whiteSpace=wrap;html=1;align=center;" vertex="1" parent="1">
          <mxGeometry x="295" y="240" width="100" height="40" as="geometry" />
        </mxCell>
        <mxCell id="2az8KpTj_jC6bh87CxZR-25" value="" style="curved=1;endArrow=classic;html=1;rounded=0;exitX=0.354;exitY=1.031;exitDx=0;exitDy=0;exitPerimeter=0;entryX=1;entryY=0.5;entryDx=0;entryDy=0;" edge="1" parent="1" source="2az8KpTj_jC6bh87CxZR-12" target="2az8KpTj_jC6bh87CxZR-24">
          <mxGeometry width="50" height="50" relative="1" as="geometry">
            <mxPoint x="380" y="260" as="sourcePoint" />
            <mxPoint x="400" y="250" as="targetPoint" />
            <Array as="points">
              <mxPoint x="420" y="250" />
            </Array>
          </mxGeometry>
        </mxCell>
        <mxCell id="2az8KpTj_jC6bh87CxZR-26" value="return&amp;nbsp;" style="text;html=1;align=center;verticalAlign=middle;resizable=0;points=[];autosize=1;strokeColor=none;fillColor=none;" vertex="1" parent="1">
          <mxGeometry x="365" y="220" width="60" height="30" as="geometry" />
        </mxCell>
        <mxCell id="2az8KpTj_jC6bh87CxZR-27" value="" style="curved=1;endArrow=classic;html=1;rounded=0;entryX=0.014;entryY=0.773;entryDx=0;entryDy=0;entryPerimeter=0;exitX=0.744;exitY=-0.039;exitDx=0;exitDy=0;exitPerimeter=0;" edge="1" parent="1" source="2az8KpTj_jC6bh87CxZR-24" target="2az8KpTj_jC6bh87CxZR-12">
          <mxGeometry width="50" height="50" relative="1" as="geometry">
            <mxPoint x="320" y="240" as="sourcePoint" />
            <mxPoint x="370" y="190" as="targetPoint" />
            <Array as="points">
              <mxPoint x="370" y="240" />
              <mxPoint x="350" y="200" />
            </Array>
          </mxGeometry>
        </mxCell>
      </root>
    </mxGraphModel>
  </diagram>
</mxfile>
